<?xml version="1.0" encoding="UTF-8"?><svg id="_レイヤー_2" xmlns="http://www.w3.org/2000/svg" viewBox="0 0 152.75 239.65"><defs><style>.cls-1{fill:#f6ab00;}.cls-2{fill:#eb6100;}.cls-3{fill:#f39800;}.cls-4{fill:#fdd000;}</style></defs><g id="_レイヤー_1-2"><g><path class="cls-2" d="M2.22,182.33c0-10.02,8.26-16.52,17.47-16.52,6.09,0,10.77,2.98,13.81,7.45l-7.79,4.88c-1.22-1.9-3.79-3.05-5.96-3.05-4.6,0-7.31,3.32-7.31,7.25s2.71,7.45,7.31,7.45c2.17,0,4.74-1.15,5.96-3.05l7.79,4.88c-3.05,4.47-7.72,7.45-13.81,7.45-9.21,0-17.47-6.7-17.47-16.73Z"/><path class="cls-2" d="M39.2,182.46c0-10.02,8.13-16.66,17.13-16.66s17.2,6.64,17.2,16.66-8.19,16.59-17.2,16.59-17.13-6.64-17.13-16.59Zm24.11,0c0-4.33-3.12-7.38-6.98-7.38s-6.98,3.05-6.98,7.38,3.12,7.31,6.98,7.31,6.98-2.98,6.98-7.31Z"/><path class="cls-2" d="M79.22,182.33c0-10.02,8.26-16.52,17.47-16.52,6.09,0,10.77,2.98,13.81,7.45l-7.79,4.88c-1.22-1.9-3.79-3.05-5.96-3.05-4.6,0-7.31,3.32-7.31,7.25s2.71,7.45,7.31,7.45c2.17,0,4.74-1.15,5.96-3.05l7.79,4.88c-3.05,4.47-7.72,7.45-13.81,7.45-9.21,0-17.47-6.7-17.47-16.73Z"/><path class="cls-2" d="M116.19,182.46c0-10.02,8.13-16.66,17.13-16.66s17.2,6.64,17.2,16.66-8.19,16.59-17.2,16.59-17.13-6.64-17.13-16.59Zm24.11,0c0-4.33-3.12-7.38-6.98-7.38s-6.98,3.05-6.98,7.38,3.12,7.31,6.98,7.31,6.98-2.98,6.98-7.31Z"/><path class="cls-2" d="M52.12,222.45v16.72h-10.25v-15.05c0-4.21-1.73-5.99-4.42-5.99-2.97,0-5.12,2-5.12,6.53v14.51h-10.25v-15.05c0-4.21-1.67-5.99-4.42-5.99-3.02,0-5.18,2-5.18,6.53v14.51H2.22v-29.23H11.99v3.07c2.21-2.37,5.29-3.56,8.74-3.56,3.99,0,7.39,1.46,9.44,4.58,2.32-2.91,5.93-4.58,10.14-4.58,6.8,0,11.81,3.94,11.81,13Z"/><path class="cls-2" d="M90.15,209.93v29.23h-9.76v-2.91c-1.94,2.32-4.8,3.4-8.63,3.4-7.93,0-14.35-5.83-14.35-15.16s6.42-15.05,14.35-15.05c3.4,0,6.15,.97,8.14,3.02v-2.54h10.25Zm-10.09,14.56c0-4.42-2.7-6.9-6.15-6.9s-6.15,2.48-6.15,6.9,2.7,7.01,6.15,7.01,6.15-2.54,6.15-7.01Z"/><path class="cls-2" d="M115.56,237.98c-1.78,1.13-4.42,1.67-7.12,1.67-7.5,0-11.81-3.67-11.81-11.16v-25.19h10.25v6.64h6.63v8.74h-6.63v9.71c0,2.16,1.19,3.34,3.02,3.34,1.13,0,2.27-.32,3.13-.92l2.54,7.17Z"/><path class="cls-2" d="M143.03,229.3l5.34,5.61c-2.75,3.13-6.85,4.75-12.41,4.75-10.41,0-17.15-6.42-17.15-15.16s6.9-15.05,16.18-15.05c8.41,0,15.48,5.34,15.53,14.89l-20.87,3.99c1.13,2.37,3.4,3.51,6.63,3.51,2.86,0,4.75-.81,6.74-2.54Zm-14.19-6.2l11.87-2.32c-.7-2.43-2.8-4.05-5.66-4.05-3.51,0-5.88,2.21-6.2,6.36Z"/><path class="cls-4" d="M51.87,49.78c-6.27,7.42-17.37,8.35-24.79,2.09-7.42-6.27-8.35-17.37-2.09-24.79,6.27-7.42,17.37-8.35,24.79-2.09,1.6,1.35,2.88,2.94,3.87,4.65l18.03-10.41c-2.16-3.75-4.96-7.21-8.45-10.16C47.02-4.62,22.77-2.58,9.07,13.63-4.62,29.84-2.58,54.09,13.63,67.79c16.21,13.7,40.46,11.66,54.16-4.56,1.5-1.77,2.78-3.66,3.9-5.6l-18.04-10.41c-.51,.89-1.1,1.75-1.78,2.56Z"/><path class="cls-1" d="M71.68,19.23l-18.03,10.41c3.1,5.37,3.18,12.09,0,17.57l18.04,10.41c6.93-11.98,6.77-26.66,0-38.4Z"/><path class="cls-3" d="M147.61,19.23c-2.16-3.75-4.96-7.21-8.45-10.16-16.21-13.7-40.46-11.66-54.16,4.56-13.7,16.21-11.66,40.46,4.56,54.16,16.21,13.7,40.46,11.66,54.16-4.56,1.5-1.77,2.78-3.66,3.9-5.6,6.93-11.98,6.77-26.66,0-38.4Zm-19.82,30.55c-6.27,7.42-17.37,8.35-24.79,2.09-7.42-6.27-8.35-17.37-2.09-24.79,6.27-7.42,17.37-8.35,24.79-2.09,1.6,1.35,2.88,2.94,3.87,4.65,3.1,5.37,3.18,12.09,0,17.57-.51,.89-1.1,1.75-1.78,2.56Z"/><path class="cls-4" d="M100.88,103.02c6.27-7.42,17.37-8.35,24.79-2.09,7.42,6.27,8.35,17.37,2.09,24.79-6.27,7.42-17.37,8.35-24.79,2.09-1.6-1.35-2.88-2.94-3.87-4.65l-18.03,10.41c2.16,3.75,4.96,7.21,8.45,10.16,16.21,13.7,40.46,11.66,54.16-4.56,13.7-16.21,11.66-40.46-4.56-54.16-16.21-13.7-40.46-11.66-54.16,4.56-1.5,1.77-2.78,3.66-3.9,5.6l18.04,10.41c.51-.89,1.1-1.75,1.78-2.56Z"/><path class="cls-1" d="M81.07,133.57l18.03-10.41c-3.1-5.37-3.18-12.09,0-17.57l-18.04-10.41c-6.93,11.98-6.77,26.66,0,38.4Z"/><path class="cls-3" d="M63.19,85.02c-16.21-13.7-40.46-11.66-54.16,4.56-1.5,1.77-2.78,3.66-3.9,5.6-6.93,11.98-6.77,26.66,0,38.4,2.16,3.75,4.96,7.21,8.45,10.16,16.21,13.7,40.46,11.66,54.16-4.56,13.7-16.21,11.66-40.46-4.56-54.16Zm-11.37,40.71c-6.27,7.42-17.37,8.35-24.79,2.09-1.6-1.35-2.88-2.94-3.87-4.65-3.1-5.37-3.18-12.09,0-17.57,.51-.89,1.1-1.75,1.78-2.56,6.27-7.42,17.37-8.35,24.79-2.09,7.42,6.27,8.35,17.37,2.09,24.79Z"/></g></g></svg>