<?xml version="1.0" encoding="UTF-8"?><svg id="_レイヤー_2" xmlns="http://www.w3.org/2000/svg" viewBox="0 0 374.99 122.54"><defs><style>.cls-1{fill:#666464;}.cls-2{fill:#4c4948;}.cls-3{fill:#9fa0a0;}.cls-4{fill:#727171;}</style></defs><g id="_レイヤー_1-2"><g><path class="cls-2" d="M140.61,29.4c0-15.84,13.06-26.11,27.61-26.11,9.63,0,17.02,4.71,21.83,11.77l-12.31,7.71c-1.93-3-5.99-4.82-9.42-4.82-7.28,0-11.56,5.24-11.56,11.45s4.28,11.77,11.56,11.77c3.42,0,7.49-1.82,9.42-4.82l12.31,7.71c-4.81,7.06-12.2,11.77-21.83,11.77-14.55,0-27.61-10.59-27.61-26.43Z"/><path class="cls-2" d="M199.04,29.61c0-15.84,12.84-26.33,27.08-26.33s27.18,10.49,27.18,26.33-12.95,26.22-27.18,26.22-27.08-10.49-27.08-26.22Zm38.1,0c0-6.85-4.92-11.67-11.02-11.67s-11.02,4.82-11.02,11.67,4.92,11.56,11.02,11.56,11.02-4.71,11.02-11.56Z"/><path class="cls-2" d="M262.29,29.4c0-15.84,13.06-26.11,27.61-26.11,9.63,0,17.02,4.71,21.83,11.77l-12.31,7.71c-1.93-3-5.99-4.82-9.42-4.82-7.28,0-11.56,5.24-11.56,11.45s4.28,11.77,11.56,11.77c3.42,0,7.49-1.82,9.42-4.82l12.31,7.71c-4.81,7.06-12.2,11.77-21.83,11.77-14.55,0-27.61-10.59-27.61-26.43Z"/><path class="cls-2" d="M320.73,29.61c0-15.84,12.84-26.33,27.08-26.33s27.18,10.49,27.18,26.33-12.95,26.22-27.18,26.22-27.08-10.49-27.08-26.22Zm38.1,0c0-6.85-4.92-11.67-11.02-11.67s-11.02,4.82-11.02,11.67,4.92,11.56,11.02,11.56,11.02-4.71,11.02-11.56Z"/><path class="cls-2" d="M219.46,92.8v26.43h-16.2v-23.78c0-6.65-2.73-9.46-6.99-9.46-4.69,0-8.1,3.15-8.1,10.31v22.93h-16.2v-23.78c0-6.65-2.64-9.46-6.99-9.46-4.77,0-8.18,3.15-8.18,10.31v22.93h-16.2v-46.2h15.43v4.86c3.49-3.75,8.35-5.63,13.81-5.63,6.31,0,11.68,2.3,14.92,7.25,3.66-4.6,9.38-7.25,16.02-7.25,10.74,0,18.67,6.22,18.67,20.54Z"/><path class="cls-2" d="M279.57,73.03v46.2h-15.43v-4.6c-3.07,3.67-7.59,5.37-13.64,5.37-12.53,0-22.68-9.21-22.68-23.95s10.14-23.78,22.68-23.78c5.37,0,9.72,1.53,12.87,4.77v-4.01h16.2Zm-15.94,23.02c0-6.99-4.26-10.91-9.72-10.91s-9.72,3.92-9.72,10.91,4.26,11.08,9.72,11.08,9.72-4.01,9.72-11.08Z"/><path class="cls-2" d="M319.72,117.35c-2.81,1.79-6.99,2.64-11.25,2.64-11.85,0-18.67-5.8-18.67-17.64V62.54h16.2v10.49h10.49v13.81h-10.49v15.34c0,3.41,1.88,5.29,4.77,5.29,1.79,0,3.58-.51,4.94-1.45l4.01,11.34Z"/><path class="cls-2" d="M363.14,103.63l8.44,8.86c-4.35,4.94-10.83,7.5-19.61,7.5-16.45,0-27.11-10.14-27.11-23.95s10.91-23.78,25.57-23.78c13.3,0,24.46,8.44,24.55,23.53l-32.99,6.31c1.79,3.75,5.37,5.54,10.48,5.54,4.52,0,7.5-1.28,10.66-4.01Zm-22.42-9.8l18.75-3.67c-1.11-3.84-4.43-6.39-8.95-6.39-5.54,0-9.29,3.5-9.8,10.06Z"/><path class="cls-3" d="M41.59,39.92c-5.03,5.95-13.93,6.7-19.88,1.67-5.95-5.03-6.7-13.93-1.67-19.88,5.03-5.95,13.93-6.7,19.88-1.67,1.28,1.08,2.31,2.35,3.1,3.73l14.46-8.35c-1.73-3-3.97-5.78-6.78-8.15C37.71-3.71,18.26-2.07,7.28,10.93-3.71,23.93-2.07,43.38,10.93,54.36c13,10.98,32.45,9.35,43.43-3.65,1.2-1.42,2.23-2.93,3.13-4.49l-14.46-8.35c-.41,.71-.88,1.4-1.43,2.06Z"/><path class="cls-4" d="M57.49,15.42l-14.46,8.35c2.49,4.31,2.55,9.7,0,14.09l14.46,8.35c5.56-9.61,5.43-21.38,0-30.79Z"/><path class="cls-1" d="M118.37,15.42c-1.73-3-3.97-5.78-6.78-8.15-13-10.98-32.45-9.35-43.43,3.65-10.98,13-9.35,32.45,3.65,43.43,13,10.98,32.45,9.35,43.43-3.65,1.2-1.42,2.23-2.93,3.13-4.49,5.56-9.61,5.43-21.38,0-30.79Zm-15.89,24.5c-5.03,5.95-13.93,6.7-19.88,1.67-5.95-5.03-6.7-13.93-1.67-19.88,5.03-5.95,13.93-6.7,19.88-1.67,1.28,1.08,2.31,2.35,3.1,3.73,2.49,4.31,2.55,9.7,0,14.09-.41,.71-.88,1.4-1.43,2.06Z"/><path class="cls-3" d="M80.9,82.62c5.03-5.95,13.93-6.7,19.88-1.67,5.95,5.03,6.7,13.93,1.67,19.88-5.03,5.95-13.93,6.7-19.88,1.67-1.28-1.08-2.31-2.35-3.1-3.73l-14.46,8.35c1.73,3,3.97,5.78,6.78,8.15,13,10.98,32.45,9.35,43.43-3.65,10.98-13,9.35-32.45-3.65-43.43-13-10.98-32.45-9.35-43.43,3.65-1.2,1.42-2.23,2.93-3.13,4.49l14.46,8.35c.41-.71,.88-1.4,1.43-2.06Z"/><path class="cls-4" d="M65.01,107.12l14.46-8.35c-2.49-4.31-2.55-9.7,0-14.09l-14.46-8.35c-5.56,9.61-5.43,21.38,0,30.79Z"/><path class="cls-1" d="M50.68,68.18c-13-10.98-32.45-9.35-43.43,3.65-1.2,1.42-2.23,2.93-3.13,4.49-5.56,9.61-5.43,21.38,0,30.79,1.73,3,3.97,5.78,6.78,8.15,13,10.98,32.45,9.35,43.43-3.65,10.98-13,9.35-32.45-3.65-43.43Zm-9.11,32.65c-5.03,5.95-13.93,6.7-19.88,1.67-1.28-1.08-2.31-2.35-3.1-3.73-2.49-4.31-2.55-9.7,0-14.09,.41-.71,.88-1.4,1.43-2.06,5.03-5.95,13.93-6.7,19.88-1.67,5.95,5.03,6.7,13.93,1.67,19.88Z"/></g></g></svg>